<svg width="500" height="500" viewBox="0 0 500 500" fill="none" xmlns="http://www.w3.org/2000/svg">
<path fill-rule="evenodd" clip-rule="evenodd" d="M30 245.603L155.022 30H340.672L470 245.603L340.672 470H155.022L30 245.603Z" fill="white" stroke="#0000FF" stroke-width="8" stroke-miterlimit="8"/>
<g filter="url(#filter0_d_2_111)">
<path fill-rule="evenodd" clip-rule="evenodd" d="M47.6 246.438L163.856 44.96L248.494 45.1781L333.131 45.3962C350.195 74.8627 436.216 216.972 453.28 246.438L333.662 454.808L165.186 455.04L47.6 246.438Z" fill="white"/>
<path fill-rule="evenodd" clip-rule="evenodd" d="M47.6 246.438L163.856 44.96L248.494 45.1781L333.131 45.3962C350.195 74.8627 436.216 216.972 453.28 246.438L333.662 454.808L165.186 455.04L47.6 246.438Z" stroke="#0000FF" stroke-width="2" stroke-miterlimit="8"/>
</g>
<path d="M177.018 344.336C176.601 342.885 176.014 341.602 175.258 340.488C174.503 339.355 173.578 338.4 172.484 337.625C171.41 336.829 170.177 336.223 168.785 335.805C167.413 335.387 165.892 335.179 164.221 335.179C161.099 335.179 158.355 335.954 155.988 337.505C153.642 339.056 151.812 341.314 150.5 344.277C149.187 347.22 148.531 350.819 148.531 355.075C148.531 359.331 149.177 362.95 150.47 365.933C151.763 368.916 153.592 371.193 155.959 372.764C158.325 374.315 161.119 375.091 164.341 375.091C167.264 375.091 169.76 374.573 171.828 373.539C173.916 372.485 175.507 371.004 176.601 369.095C177.714 367.186 178.271 364.929 178.271 362.323L180.896 362.711H165.146V352.987H190.71V360.683C190.71 366.052 189.576 370.666 187.309 374.524C185.042 378.362 181.92 381.325 177.943 383.413C173.966 385.481 169.412 386.515 164.281 386.515C158.554 386.515 153.522 385.252 149.187 382.727C144.852 380.181 141.471 376.572 139.045 371.899C136.639 367.206 135.436 361.637 135.436 355.194C135.436 350.243 136.152 345.828 137.584 341.95C139.035 338.052 141.064 334.751 143.669 332.047C146.274 329.342 149.307 327.284 152.767 325.872C156.227 324.46 159.976 323.754 164.013 323.754C167.473 323.754 170.694 324.261 173.677 325.275C176.66 326.27 179.305 327.681 181.612 329.511C183.939 331.341 185.838 333.518 187.309 336.044C188.781 338.549 189.726 341.314 190.143 344.336H177.018ZM200.412 385.68V324.589H241.577V335.238H213.328V349.795H239.459V360.444H213.328V375.031H241.696V385.68H200.412ZM302.944 324.589V385.68H291.787L265.209 347.23H264.762V385.68H251.846V324.589H263.181L289.55 363.01H290.087V324.589H302.944ZM312.959 385.68V378.014L343.445 335.238H312.899V324.589H359.672V332.255L329.156 375.031H359.732V385.68H312.959Z" fill="#0000FF"/>
<path d="M261.649 151.741H239.526C237.446 151.741 235.76 153.579 235.76 155.845C235.76 158.111 237.446 159.948 239.526 159.948H261.649C263.729 159.948 265.417 158.111 265.417 155.845C265.417 153.579 263.729 151.741 261.649 151.741Z" fill="#7030A0" stroke="#002060" stroke-width="1.57292"/>
<path d="M250.575 173.489C254.819 173.485 258.333 169.896 258.611 165.282H242.564C242.829 169.892 246.335 173.483 250.575 173.489Z" fill="#7030A0" stroke="#002060" stroke-width="1.57292"/>
<path d="M250.575 73.4783C233.038 73.6087 218.795 88.9531 218.482 108.056V109.259C218.567 113.454 219.324 117.602 220.717 121.515C222.015 125.169 223.902 128.541 226.292 131.471C229.27 135.569 231.799 140.03 233.825 144.765C234.246 145.677 235.099 146.257 236.036 146.271H265.164C266.102 146.257 266.954 145.677 267.376 144.765C269.403 140.031 271.932 135.569 274.908 131.471C277.282 128.534 279.161 125.163 280.459 121.515C281.815 117.638 282.57 113.543 282.693 109.397V108.193C282.434 89.033 268.166 73.6104 250.575 73.4783ZM275.285 109.04C275.181 112.27 274.587 115.459 273.527 118.478C272.537 121.188 271.118 123.689 269.333 125.864C266.512 129.588 264.095 133.654 262.126 137.983H239.049C237.072 133.654 234.645 129.588 231.816 125.864C230.039 123.687 228.628 121.188 227.648 118.478C226.588 115.459 225.994 112.27 225.89 109.04V108.056C226.121 93.36 237.082 81.5531 250.575 81.4661C264.072 81.5531 275.041 93.3548 275.285 108.056V109.04Z" fill="#7030A0" stroke="#002060" stroke-width="1.57292"/>
<path d="M238.471 116.946L251.755 88.6887V105.047L265.541 102.064L251.755 129.72V113.663L238.471 116.946Z" fill="#7030A0" stroke="#002060" stroke-width="1.57292"/>
<path d="M322.144 191.351C322.144 203.106 313.397 212.635 302.608 212.635C291.817 212.635 283.069 203.106 283.069 191.351C283.069 179.598 291.817 170.07 302.608 170.07C313.397 170.07 322.144 179.598 322.144 191.351Z" fill="#7030A0" stroke="#002060" stroke-width="1.57292"/>
<path d="M217.93 191.351C217.93 203.106 209.182 212.635 198.393 212.635C187.602 212.635 178.855 203.106 178.855 191.351C178.855 179.598 187.602 170.07 198.393 170.07C209.182 170.07 217.93 179.598 217.93 191.351Z" fill="#7030A0" stroke="#002060" stroke-width="1.57292"/>
<path d="M337.763 231.071C332.137 226.297 325.625 222.91 318.678 221.141C313.451 219.48 308.05 218.562 302.608 218.405C297.151 218.393 291.727 219.317 286.536 221.141C281.334 222.652 276.361 224.974 271.769 228.035C271.468 228.417 271.191 228.8 270.866 229.157C278.168 231.297 285.001 235.019 290.955 240.099C295.653 243.835 298.396 249.821 298.313 256.157V261.024H341.681V239.605C341.758 236.23 340.289 233.031 337.763 231.071Z" fill="#7030A0" stroke="#002060" stroke-width="1.57292"/>
<path d="M202.737 256.157C202.742 250 205.333 244.186 209.768 240.372L210.07 240.099L210.396 239.852C216.418 235.186 223.08 231.584 230.134 229.184C229.632 228.609 229.18 228.007 228.703 227.405C224.289 224.591 219.528 222.482 214.564 221.141C209.337 219.478 203.936 218.558 198.494 218.405C193.037 218.395 187.613 219.318 182.421 221.141C175.572 223.2 169.111 226.562 163.337 231.071C160.862 233.09 159.38 236.24 159.318 239.605V261.024H202.737V256.157Z" fill="#7030A0" stroke="#002060" stroke-width="1.57292"/>
<path d="M211.426 277.438V256.157C211.437 252.809 212.886 249.661 215.343 247.649C221.107 243.12 227.571 239.757 234.428 237.718C239.619 235.882 245.043 234.958 250.5 234.983C255.944 235.122 261.347 236.042 266.571 237.718C273.53 239.468 280.054 242.857 285.681 247.649C288.197 249.603 289.655 252.791 289.574 256.157V277.438H211.426Z" fill="#7030A0" stroke="#002060" stroke-width="1.57292"/>
<path d="M270.037 207.901C270.037 219.656 261.29 229.184 250.5 229.184C239.709 229.184 230.962 219.656 230.962 207.901C230.962 196.148 239.709 186.619 250.5 186.619C261.29 186.619 270.037 196.148 270.037 207.901Z" fill="#7030A0" stroke="#002060" stroke-width="1.57292"/>
<defs>
<filter id="filter0_d_2_111" x="42.4488" y="43.9585" width="415.985" height="420.082" filterUnits="userSpaceOnUse" color-interpolation-filters="sRGB">
<feFlood flood-opacity="0" result="BackgroundImageFix"/>
<feColorMatrix in="SourceAlpha" type="matrix" values="0 0 0 0 0 0 0 0 0 0 0 0 0 0 0 0 0 0 127 0" result="hardAlpha"/>
<feOffset dy="4"/>
<feGaussianBlur stdDeviation="2"/>
<feComposite in2="hardAlpha" operator="out"/>
<feColorMatrix type="matrix" values="0 0 0 0 0 0 0 0 0 0 0 0 0 0 0 0 0 0 0.25 0"/>
<feBlend mode="normal" in2="BackgroundImageFix" result="effect1_dropShadow_2_111"/>
<feBlend mode="normal" in="SourceGraphic" in2="effect1_dropShadow_2_111" result="shape"/>
</filter>
</defs>
</svg>
