<svg width="450" height="450" viewBox="0 0 450 450" fill="none" xmlns="http://www.w3.org/2000/svg">
<rect width="450" height="450" fill="white"/>
<path fill-rule="evenodd" clip-rule="evenodd" d="M15 222.972L93.281 99H209.523L298 227.775L209.523 352H93.281L15 222.972Z" fill="white" stroke="#0000FF" stroke-width="8" stroke-miterlimit="8"/>
<path fill-rule="evenodd" clip-rule="evenodd" d="M25 223.459L97.837 108L203.891 108.25C214.582 125.136 227.44 141.188 238.131 158.074L283 226.234L241.714 289.342L204.224 342.867L98.67 343L25 223.459Z" fill="white" stroke="#0000FF" stroke-width="2" stroke-miterlimit="8"/>
<path fill-rule="evenodd" clip-rule="evenodd" d="M160.51 149L310 164.321V280.841L156 301L160.51 149Z" fill="white" stroke="white" stroke-width="2" stroke-miterlimit="8"/>
<path d="M274.683 215.562C274.325 214.318 273.822 213.219 273.174 212.264C272.526 211.293 271.734 210.474 270.796 209.81C269.876 209.128 268.819 208.608 267.626 208.25C266.45 207.892 265.146 207.713 263.714 207.713C261.038 207.713 258.686 208.378 256.657 209.707C254.646 211.037 253.078 212.972 251.953 215.511C250.828 218.034 250.265 221.119 250.265 224.767C250.265 228.415 250.819 231.517 251.927 234.074C253.035 236.631 254.603 238.582 256.632 239.929C258.66 241.259 261.055 241.923 263.816 241.923C266.322 241.923 268.461 241.48 270.234 240.594C272.024 239.69 273.387 238.42 274.325 236.784C275.279 235.148 275.757 233.213 275.757 230.98L278.007 231.312H264.507V222.977H286.418V229.574C286.418 234.176 285.447 238.131 283.504 241.438C281.561 244.727 278.884 247.267 275.475 249.057C272.066 250.83 268.163 251.716 263.765 251.716C258.856 251.716 254.543 250.634 250.828 248.469C247.112 246.287 244.214 243.193 242.134 239.188C240.072 235.165 239.041 230.392 239.041 224.869C239.041 220.625 239.654 216.841 240.882 213.517C242.126 210.176 243.865 207.347 246.097 205.028C248.33 202.71 250.93 200.946 253.896 199.736C256.862 198.526 260.075 197.92 263.535 197.92C266.501 197.92 269.262 198.355 271.819 199.224C274.376 200.077 276.643 201.287 278.62 202.855C280.615 204.423 282.242 206.29 283.504 208.455C284.765 210.602 285.575 212.972 285.933 215.562H274.683ZM294.735 251V198.636H330.019V207.764H305.806V220.241H328.203V229.369H305.806V241.872H330.121V251H294.735ZM382.619 198.636V251H373.056L350.275 218.043H349.892V251H338.82V198.636H348.536L371.139 231.568H371.599V198.636H382.619ZM391.203 251V244.429L417.334 207.764H391.152V198.636H431.243V205.207L405.087 241.872H431.294V251H391.203Z" fill="#0000FF"/>
<path d="M157.971 198.422H144.114C142.811 198.422 141.755 199.479 141.755 200.782C141.755 202.085 142.811 203.141 144.114 203.141H157.971C159.274 203.141 160.331 202.085 160.331 200.782C160.331 199.479 159.274 198.422 157.971 198.422Z" fill="#7030A0" stroke="#002060" stroke-width="1.57292"/>
<path d="M151.035 210.927C153.693 210.925 155.894 208.861 156.068 206.208H146.017C146.183 208.859 148.379 210.924 151.035 210.927Z" fill="#7030A0" stroke="#002060" stroke-width="1.57292"/>
<path d="M151.035 153.421C140.05 153.496 131.129 162.319 130.933 173.303V173.995C130.986 176.407 131.46 178.792 132.333 181.042C133.146 183.143 134.328 185.082 135.825 186.767C137.69 189.123 139.274 191.688 140.543 194.411C140.807 194.935 141.341 195.269 141.928 195.277H160.173C160.76 195.269 161.294 194.935 161.558 194.411C162.828 191.689 164.412 189.123 166.276 186.767C167.763 185.078 168.94 183.14 169.753 181.042C170.602 178.813 171.075 176.458 171.152 174.074V173.382C170.99 162.365 162.053 153.497 151.035 153.421ZM166.512 173.869C166.447 175.726 166.075 177.56 165.411 179.296C164.791 180.854 163.902 182.292 162.784 183.543C161.017 185.684 159.503 188.022 158.27 190.511H143.815C142.577 188.022 141.057 185.684 139.285 183.543C138.172 182.291 137.288 180.854 136.674 179.296C136.01 177.56 135.638 175.726 135.573 173.869V173.303C135.718 164.853 142.583 158.064 151.035 158.014C159.489 158.064 166.359 164.85 166.512 173.303V173.869Z" fill="#7030A0" stroke="#002060" stroke-width="1.57292"/>
<path d="M143.453 178.415L151.774 162.167V171.573L160.409 169.858L151.774 185.76V176.527L143.453 178.415Z" fill="#7030A0" stroke="#002060" stroke-width="1.57292"/>
<path d="M195.863 221.198C195.863 227.957 190.384 233.436 183.626 233.436C176.867 233.436 171.388 227.957 171.388 221.198C171.388 214.44 176.867 208.961 183.626 208.961C190.384 208.961 195.863 214.44 195.863 221.198Z" fill="#7030A0" stroke="#002060" stroke-width="1.57292"/>
<path d="M130.587 221.198C130.587 227.957 125.108 233.436 118.35 233.436C111.591 233.436 106.112 227.957 106.112 221.198C106.112 214.44 111.591 208.961 118.35 208.961C125.108 208.961 130.587 214.44 130.587 221.198Z" fill="#7030A0" stroke="#002060" stroke-width="1.57292"/>
<path d="M205.646 244.037C202.122 241.292 198.043 239.344 193.692 238.327C190.418 237.372 187.035 236.844 183.626 236.754C180.208 236.747 176.811 237.278 173.559 238.327C170.301 239.196 167.186 240.531 164.31 242.291C164.121 242.511 163.948 242.731 163.744 242.936C168.318 244.167 172.598 246.307 176.327 249.228C179.27 251.376 180.988 254.818 180.936 258.461V261.26H208.1V248.944C208.148 247.003 207.228 245.164 205.646 244.037Z" fill="#7030A0" stroke="#002060" stroke-width="1.57292"/>
<path d="M121.071 258.461C121.074 254.921 122.697 251.578 125.475 249.385L125.664 249.228L125.868 249.086C129.64 246.403 133.813 244.332 138.231 242.952C137.917 242.621 137.634 242.275 137.335 241.929C134.57 240.311 131.588 239.098 128.479 238.327C125.205 237.371 121.822 236.842 118.413 236.754C114.995 236.748 111.598 237.279 108.346 238.327C104.056 239.511 100.009 241.444 96.392 244.037C94.842 245.198 93.914 247.009 93.875 248.944V261.26H121.071V258.461Z" fill="#7030A0" stroke="#002060" stroke-width="1.57292"/>
<path d="M126.513 270.698V258.461C126.52 256.536 127.428 254.726 128.967 253.569C132.577 250.965 136.626 249.031 140.921 247.859C144.172 246.803 147.57 246.272 150.988 246.286C154.398 246.366 157.782 246.895 161.054 247.859C165.413 248.865 169.499 250.814 173.024 253.569C174.6 254.693 175.513 256.526 175.462 258.461V270.698H126.513Z" fill="#7030A0" stroke="#002060" stroke-width="1.57292"/>
<path d="M163.225 230.714C163.225 237.473 157.746 242.952 150.988 242.952C144.229 242.952 138.75 237.473 138.75 230.714C138.75 223.956 144.229 218.477 150.988 218.477C157.746 218.477 163.225 223.956 163.225 230.714Z" fill="#7030A0" stroke="#002060" stroke-width="1.57292"/>
</svg>
